<?xml version="1.0" encoding="UTF-8" standalone="no"?>
<svg
   xmlns:dc="http://purl.org/dc/elements/1.1/"
   xmlns:cc="http://creativecommons.org/ns#"
   xmlns:rdf="http://www.w3.org/1999/02/22-rdf-syntax-ns#"
   xmlns:svg="http://www.w3.org/2000/svg"
   xmlns="http://www.w3.org/2000/svg"
   version="1.1"
   id="svg2"
   viewBox="0 0 500.00001 500.00001"
   height="141.11111mm"
   width="141.11111mm">
  <defs
     id="defs4">
    <style
       id="style4156">.cls-1{fill:#00aa46;}.cls-2{fill:#fff;}</style>
  </defs>
  <metadata
     id="metadata7">
    <rdf:RDF>
      <cc:Work
         rdf:about="">
        <dc:format>image/svg+xml</dc:format>
        <dc:type
           rdf:resource="http://purl.org/dc/dcmitype/StillImage" />
        <dc:title></dc:title>
      </cc:Work>
    </rdf:RDF>
  </metadata>
  <g
     transform="translate(-122.04724,-276.1811)"
     id="layer1">
    <g
       id="g4215">
      <g
         id="g4169"
         transform="matrix(0.5,0,0,0.5,122.04724,276.1811)">
        <rect
           id="rect4160"
           height="1000"
           width="1000"
           class="cls-1"
           x="0"
           y="0"
           style="fill:#00aa46" />
      </g>
      <path
         style="fill:none;fill-rule:evenodd;stroke:#ffffff;stroke-width:24.57446671;stroke-linecap:butt;stroke-linejoin:miter;stroke-miterlimit:4;stroke-dasharray:none;stroke-opacity:1"
         d="m 483.84335,353.39319 c -52.74449,0.28649 -72.49728,3.05885 -99.76106,19.40352 -39.16464,23.47925 -62.90089,61.03431 -65.13825,114.91904 l 0.0941,58.25249 c 0.0946,32.42484 -4.90295,45.32581 -46.63357,47.6969 l 0.68527,51.96279 c 63.82353,1.85202 92.71884,-31.53756 98.79387,-81.00982 l -0.1293,-62.28127 c -1.78214,-70.95749 51.80845,-97.81482 100.01921,-95.79617 l -0.30575,51.36001 c -49.77129,0.49236 -46.01554,34.2195 -46.25061,65.99155 l -0.18654,41.66685 c -4.57468,53.42862 -17.24496,74.73216 -48.08084,101.74701 -41.25825,36.14572 -94.59791,31.46244 -116.89831,31.36581"
         id="path3347" />
    </g>
  </g>
</svg>
